<svg viewBox="0 0 200 150" xmlns="http://www.w3.org/2000/svg">
  <defs>
    <linearGradient id="grad4" x1="0%" y1="0%" x2="100%" y2="100%">
      <stop offset="0%" style="stop-color:#059669;stop-opacity:1" />
      <stop offset="100%" style="stop-color:#047857;stop-opacity:1" />
    </linearGradient>
  </defs>
  <rect width="200" height="150" fill="url(#grad4)"/>
  <g fill="white" opacity="0.9">
    <!-- Clipboard -->
    <rect x="60" y="40" width="80" height="80" rx="4"/>
    <rect x="65" y="45" width="70" height="70" rx="2" fill="none" stroke="white" stroke-width="2"/>
    
    <!-- Clip -->
    <rect x="90" y="35" width="20" height="15" rx="2"/>
    <rect x="92" y="37" width="16" height="11" rx="2" fill="none" stroke="white" stroke-width="1"/>
    
    <!-- Lines of text -->
    <rect x="75" y="55" width="50" height="2" rx="1"/>
    <rect x="75" y="62" width="45" height="2" rx="1"/>
    <rect x="75" y="69" width="55" height="2" rx="1"/>
    <rect x="75" y="76" width="40" height="2" rx="1"/>
    <rect x="75" y="83" width="50" height="2" rx="1"/>
    <rect x="75" y="90" width="35" height="2" rx="1"/>
    <rect x="75" y="97" width="45" height="2" rx="1"/>
    
    <!-- Checkboxes -->
    <rect x="70" y="53" width="4" height="4" rx="1"/>
    <rect x="70" y="60" width="4" height="4" rx="1"/>
    <rect x="70" y="67" width="4" height="4" rx="1"/>
    <rect x="70" y="74" width="4" height="4" rx="1"/>
    
    <!-- Check marks -->
    <path d="M71 56 L72 57 L74 55" stroke="white" stroke-width="1" fill="none"/>
    <path d="M71 63 L72 64 L74 62" stroke="white" stroke-width="1" fill="none"/>
  </g>
</svg>
