<svg viewBox="0 0 200 150" xmlns="http://www.w3.org/2000/svg">
  <defs>
    <linearGradient id="grad2" x1="0%" y1="0%" x2="100%" y2="100%">
      <stop offset="0%" style="stop-color:#f59e0b;stop-opacity:1" />
      <stop offset="100%" style="stop-color:#d97706;stop-opacity:1" />
    </linearGradient>
  </defs>
  <rect width="200" height="150" fill="url(#grad2)"/>
  <g fill="white" opacity="0.9">
    <!-- Raw materials containers -->
    <rect x="30" y="90" width="40" height="40" rx="4"/>
    <rect x="80" y="80" width="40" height="50" rx="4"/>
    <rect x="130" y="85" width="40" height="45" rx="4"/>
    
    <!-- Labels/text lines -->
    <rect x="35" y="95" width="30" height="2" rx="1"/>
    <rect x="35" y="100" width="20" height="2" rx="1"/>
    <rect x="85" y="85" width="30" height="2" rx="1"/>
    <rect x="85" y="90" width="25" height="2" rx="1"/>
    <rect x="135" y="90" width="30" height="2" rx="1"/>
    <rect x="135" y="95" width="20" height="2" rx="1"/>
    
    <!-- Granules/particles -->
    <circle cx="45" cy="110" r="2"/>
    <circle cx="52" cy="108" r="1.5"/>
    <circle cx="38" cy="115" r="1"/>
    <circle cx="100" cy="110" r="2"/>
    <circle cx="105" cy="105" r="1.5"/>
    <circle cx="95" cy="115" r="1"/>
  </g>
</svg>
