<svg viewBox="0 0 200 150" xmlns="http://www.w3.org/2000/svg">
  <defs>
    <linearGradient id="grad5" x1="0%" y1="0%" x2="100%" y2="100%">
      <stop offset="0%" style="stop-color:#7c3aed;stop-opacity:1" />
      <stop offset="100%" style="stop-color:#6d28d9;stop-opacity:1" />
    </linearGradient>
  </defs>
  <rect width="200" height="150" fill="url(#grad5)"/>
  <g fill="white" opacity="0.9">
    <!-- Test tubes -->
    <rect x="70" y="50" width="8" height="60" rx="4"/>
    <rect x="85" y="45" width="8" height="65" rx="4"/>
    <rect x="100" y="55" width="8" height="55" rx="4"/>
    <rect x="115" y="40" width="8" height="70" rx="4"/>
    
    <!-- Test tube contents -->
    <rect x="71" y="85" width="6" height="20" rx="3" fill="#10b981" opacity="0.8"/>
    <rect x="86" y="80" width="6" height="25" rx="3" fill="#f59e0b" opacity="0.8"/>
    <rect x="101" y="90" width="6" height="15" rx="3" fill="#ef4444" opacity="0.8"/>
    <rect x="116" y="75" width="6" height="30" rx="3" fill="#3b82f6" opacity="0.8"/>
    
    <!-- Test tube rack -->
    <rect x="65" y="110" width="65" height="8" rx="4"/>
    <rect x="67" y="105" width="4" height="15" rx="2"/>
    <rect x="82" y="105" width="4" height="15" rx="2"/>
    <rect x="97" y="105" width="4" height="15" rx="2"/>
    <rect x="112" y="105" width="4" height="15" rx="2"/>
    <rect x="127" y="105" width="4" height="15" rx="2"/>
    
    <!-- Beaker -->
    <path d="M50 80 L50 110 L60 110 L60 80 Z" stroke="white" stroke-width="2" fill="none"/>
    <rect x="49" y="75" width="12" height="4" rx="2"/>
    <rect x="51" y="95" width="8" height="12" rx="2" fill="#06b6d4" opacity="0.6"/>
    
    <!-- Bubbles -->
    <circle cx="55" cy="85" r="1" opacity="0.6"/>
    <circle cx="53" cy="88" r="0.5" opacity="0.4"/>
    <circle cx="57" cy="90" r="0.8" opacity="0.5"/>
  </g>
</svg>
